<?xml version="1.0" encoding="UTF-8"?>
<svg version="1.1" xmlns="http://www.w3.org/2000/svg" width="512" height="512">
<path d="M0 0 C2.5198372 2.04085988 4.74388104 4.0944055 6.890625 6.53125 C7.38304687 7.08167969 7.87546875 7.63210937 8.3828125 8.19921875 C15.44592095 16.72063068 17.57884467 26.2964144 17.20703125 37.2109375 C16.07239375 49.11762731 10.56243434 59.10242656 1.40234375 66.76953125 C-3.43882667 70.16512668 -9.08888182 73.53125 -15.109375 73.53125 C-14.614375 87.88625 -14.614375 87.88625 -14.109375 102.53125 C-12.15 101.12875 -10.190625 99.72625 -8.171875 98.28125 C29.37613621 72.68443833 76.87155338 64.00078876 121.34277344 72.03515625 C147.34400392 77.09787188 170.238415 87.374703 191.890625 102.53125 C192.220625 92.96125 192.550625 83.39125 192.890625 73.53125 C190.910625 73.20125 188.930625 72.87125 186.890625 72.53125 C176.48596759 68.20491479 168.57220731 60.75489237 163.890625 50.53125 C159.93760655 39.23904259 159.62437494 28.75822383 163.890625 17.53125 C169.25217257 6.41822414 176.62764689 -0.48245276 187.890625 -5.46875 C198.08932515 -9.00362286 208.8507553 -8.12668702 218.890625 -4.46875 C230.64327535 1.39207036 237.30902473 9.33889227 241.890625 21.53125 C245.1781748 31.49859843 243.43807716 44.34272166 238.890625 53.53125 C233.63455014 61.94877582 226.33217702 69.08993665 216.890625 72.53125 C214.89336243 72.8806113 212.89347265 73.21547729 210.890625 73.53125 C210.83056803 79.93655705 210.83322811 86.33969469 210.87841797 92.74511719 C210.88650276 94.92154325 210.8805061 97.09807088 210.85986328 99.27441406 C210.8325799 102.41343945 210.85681289 105.54860866 210.890625 108.6875 C210.86150024 110.13485535 210.86150024 110.13485535 210.83178711 111.6114502 C210.94917009 117.17545231 211.77916891 120.00902184 215.77368164 123.99951172 C217.14103598 125.18251528 218.51302334 126.36019535 219.890625 127.53125 C221.80599744 129.66395874 223.57532088 131.88879986 225.328125 134.15625 C225.79130127 134.75252197 226.25447754 135.34879395 226.73168945 135.96313477 C229.84292722 140.02773897 232.78251672 144.18142119 235.578125 148.46875 C235.95573975 149.03376221 236.33335449 149.59877441 236.72241211 150.1809082 C238.72232836 153.2828102 240.19453901 156.19906117 241.34765625 159.7109375 C243.49876533 165.87877391 243.49876533 165.87877391 247.890625 170.53125 C254.0056412 172.17486161 260.26072424 171.8034928 266.53125 171.546875 C276.84872619 171.20713967 285.97596817 173.8281808 293.890625 180.53125 C299.65343008 186.02331927 304.46384068 193.34634497 305.02484608 201.47636509 C305.0312563 202.50024783 305.0312563 202.50024783 305.03779602 203.54481506 C305.04852898 204.72823486 305.04852898 204.72823486 305.05947876 205.93556213 C305.06216766 206.7922197 305.06485657 207.64887726 305.06762695 208.53149414 C305.07419815 209.44099823 305.08076935 210.35050232 305.08753967 211.28756714 C305.10724607 214.29718107 305.11893155 217.30674507 305.12890625 220.31640625 C305.13298178 221.34710173 305.1370573 222.3777972 305.14125633 223.43972588 C305.16210924 228.89886143 305.17641238 234.35797192 305.18579102 239.81713867 C305.19683266 245.43682799 305.23120909 251.05611887 305.27096272 256.67566776 C305.2972001 261.01247355 305.30548935 265.3491856 305.30907249 269.68606377 C305.31392278 271.75635902 305.32549192 273.82665053 305.34411049 275.89686775 C305.46730398 290.50708187 305.19801295 302.22054399 294.52734375 313.296875 C285.42016484 321.01436587 276.04142402 322.71323595 264.515625 322.59375 C263.68417969 322.58923828 262.85273438 322.58472656 261.99609375 322.58007812 C259.96090603 322.56838164 257.92575577 322.55044935 255.890625 322.53125 C255.81403152 323.30417892 255.73743805 324.07710785 255.65852356 324.87345886 C254.92774735 332.21472734 254.17926574 339.55388526 253.41162586 346.89138317 C253.01772836 350.66229566 252.63033067 354.4336252 252.25854492 358.20678711 C251.89841893 361.85903158 251.52023182 365.50902087 251.13028526 369.1581974 C250.98572905 370.5395559 250.84731756 371.92157397 250.71564674 373.3042202 C249.30019248 388.07723814 245.48782801 401.51048287 233.7265625 411.33984375 C223.50895521 418.57881994 213.27518648 420.68321886 200.98666382 420.67169189 C199.49709402 420.67614858 199.49709402 420.67614858 197.97743189 420.6806953 C194.65210098 420.68936219 191.32680615 420.69088885 188.00146484 420.69238281 C185.61613895 420.69701243 183.2308138 420.70203729 180.8454895 420.70742798 C174.36590818 420.72054071 167.88633375 420.72703189 161.40674162 420.73143864 C157.35656447 420.73420592 153.30638969 420.73844418 149.25621414 420.74294281 C138.03035571 420.75513239 126.80449917 420.76543201 115.57863426 420.7688179 C114.86076659 420.76903747 114.14289891 420.76925703 113.40327767 420.76948325 C112.32397788 420.76981067 112.32397788 420.76981067 111.22287405 420.7701447 C109.76495639 420.77058816 108.30703874 420.77103472 106.84912109 420.77148438 C105.76436719 420.77181652 105.76436719 420.77181652 104.65769906 420.77215537 C92.94881256 420.7761005 81.23998839 420.79354717 69.53112595 420.8168439 C57.49398349 420.84059935 45.45687225 420.85302167 33.41970599 420.85418582 C26.66770252 420.85510028 19.91578028 420.86079446 13.16379929 420.87900543 C6.80918923 420.89551438 0.45473299 420.89762779 -5.8998909 420.88886642 C-8.22661756 420.88809755 -10.55335259 420.89241893 -12.88005829 420.90232468 C-30.61790009 420.97338697 -45.45314168 420.4401242 -59.296875 408.03125 C-71.19696937 394.97720708 -71.97224006 379.38369595 -73.6875 362.58740234 C-74.08932289 358.66387882 -74.54711965 354.74819075 -75.015625 350.83203125 C-75.29778366 348.44021118 -75.57907488 346.04828858 -75.859375 343.65625 C-75.98731445 342.56481689 -76.11525391 341.47338379 -76.24707031 340.34887695 C-76.91140587 334.36564634 -77.23505281 328.55121692 -77.109375 322.53125 C-78.35332031 322.56605469 -79.59726563 322.60085938 -80.87890625 322.63671875 C-95.21332967 322.92208129 -106.87843953 322.12343771 -117.859375 311.90234375 C-125.41346831 303.76280821 -127.25573477 294.56889132 -127.27050781 283.76879883 C-127.27547272 282.8965567 -127.28043762 282.02431458 -127.28555298 281.12564087 C-127.30012972 278.24651289 -127.30696984 275.36744004 -127.3125 272.48828125 C-127.31825602 270.47914123 -127.3240137 268.47000122 -127.32977295 266.46086121 C-127.34027079 262.24856308 -127.34612113 258.03628397 -127.34960938 253.82397461 C-127.3550854 248.44529946 -127.37909961 243.06687856 -127.40758133 237.68828297 C-127.42627331 233.53681217 -127.43141684 229.38540175 -127.43294525 225.23389244 C-127.43595852 223.2520986 -127.44394188 221.27030548 -127.45713043 219.28855324 C-127.54215506 205.52808725 -127.48555597 193.51768814 -118.109375 182.53125 C-109.62039662 174.43527988 -100.52231 171.37574042 -88.8359375 171.43359375 C-87.68222656 171.43681641 -86.52851562 171.44003906 -85.33984375 171.44335938 C-84.15003906 171.45173828 -82.96023437 171.46011719 -81.734375 171.46875 C-79.91486328 171.47551758 -79.91486328 171.47551758 -78.05859375 171.48242188 C-75.07546993 171.49416646 -72.09244821 171.5105916 -69.109375 171.53125 C-68.75552734 170.05205078 -68.75552734 170.05205078 -68.39453125 168.54296875 C-67.11044495 164.07057367 -64.93906583 160.30975059 -62.546875 156.34375 C-62.10069824 155.59762451 -61.65452148 154.85149902 -61.19482422 154.08276367 C-53.65978964 141.67251101 -44.39471749 129.81659249 -34.109375 119.53125 C-33.77940053 117.47217803 -33.77940053 117.47217803 -33.79052734 115.08154297 C-33.77065765 114.16073944 -33.75078796 113.23993591 -33.73031616 112.29122925 C-33.71876495 111.29535797 -33.70721375 110.29948669 -33.6953125 109.2734375 C-33.67594635 108.25524933 -33.6565802 107.23706116 -33.6366272 106.1880188 C-33.57672145 102.92751511 -33.53040201 99.66697633 -33.484375 96.40625 C-33.44620535 94.19920313 -33.40715423 91.99217131 -33.3671875 89.78515625 C-33.27101106 84.36732089 -33.18599601 78.94939527 -33.109375 73.53125 C-34.05248535 73.38574707 -34.9955957 73.24024414 -35.96728516 73.09033203 C-44.63648832 71.54779316 -52.61874811 65.15119736 -57.8359375 58.24609375 C-64.54474256 47.81935486 -66.92123698 36.35512023 -64.41796875 24.1640625 C-62.49305978 17.18928773 -59.99197855 11.86093533 -55.109375 6.53125 C-54.58472656 5.91636719 -54.06007813 5.30148438 -53.51953125 4.66796875 C-40.01759716 -10.16827412 -15.95496613 -11.70796076 0 0 Z " fill="#BCBDBD" transform="translate(169.109375,49.46875)"/>
<path d="M0 0 C1.14574997 -0.00335861 2.29149994 -0.00671722 3.4719696 -0.01017761 C7.25288993 -0.01966073 11.03376579 -0.02162978 14.81469727 -0.02270508 C17.45679238 -0.02592081 20.09888731 -0.02928512 22.74098206 -0.03279114 C28.28142585 -0.03917779 33.82185771 -0.04067471 39.36230469 -0.04003906 C45.72702521 -0.03944058 52.09166036 -0.04995003 58.45635933 -0.06578273 C63.95055197 -0.07895352 69.44471706 -0.08421891 74.93892533 -0.08358365 C78.20677448 -0.08333118 81.47453189 -0.08699107 84.7423687 -0.0967617 C119.56600574 -0.19108908 119.56600574 -0.19108908 134.75610352 5.14526367 C135.63145752 5.44722656 136.50681152 5.74918945 137.40869141 6.06030273 C152.68150021 11.54911863 166.33359438 19.34595858 178.44360352 30.14526367 C179.21776611 30.82878906 179.21776611 30.82878906 180.00756836 31.52612305 C198.7968289 48.40491396 210.5252525 70.80045005 216.44360352 95.14526367 C216.81098633 96.5896582 216.81098633 96.5896582 217.18579102 98.06323242 C220.20292808 112.38430083 219.52494335 128.88059954 216.44360352 143.14526367 C216.31083008 143.89549805 216.17805664 144.64573242 216.04125977 145.41870117 C214.36948465 153.72981177 210.13127598 159.13065814 203.40844727 164.01635742 C199.82055078 166.07779297 196.45100225 166.27127931 192.36663437 166.27948475 C191.33600207 166.28394259 190.30536977 166.28840044 189.24350619 166.29299337 C188.11278477 166.292809 186.98206335 166.29262464 185.81707764 166.29243469 C184.61465652 166.29611138 183.4122354 166.29978807 182.17337728 166.30357617 C178.83438155 166.3126954 175.49543494 166.31731102 172.15643144 166.31996548 C168.55576201 166.32387201 164.95510677 166.33345001 161.35444641 166.34217834 C152.65893355 166.36193141 143.96341954 166.37200684 135.26788986 166.38090613 C131.1725627 166.38529035 127.07723684 166.39065676 122.98191071 166.395895 C109.36791121 166.41290503 95.75391251 166.42739964 82.13990402 166.43464375 C78.60783639 166.43655362 75.07576877 166.43847396 71.54370117 166.44042969 C70.22689487 166.4411553 70.22689487 166.4411553 68.88348642 166.44189557 C54.65951352 166.4501976 40.43562468 166.47553845 26.21168849 166.50801037 C11.60724127 166.54107913 -2.99716323 166.55909228 -17.60164809 166.56228799 C-25.80115838 166.5644531 -34.00054604 166.57320204 -42.20001984 166.59874916 C-49.18222962 166.62045355 -56.16428698 166.62850785 -63.14652666 166.61878238 C-66.70808337 166.61423706 -70.26932557 166.61613696 -73.83083916 166.63554382 C-77.69466865 166.65641599 -81.55806476 166.6461922 -85.42193604 166.63301086 C-87.10463384 166.64946473 -87.10463384 166.64946473 -88.82132554 166.666251 C-96.52462043 166.60275712 -101.497919 165.22561888 -107.72827148 160.49682617 C-119.86932867 147.21378836 -118.07337487 125.9158153 -117.55639648 109.14526367 C-116.79240997 94.38728027 -112.18032752 80.27892004 -105.55639648 67.14526367 C-105.06655273 66.13206055 -104.57670898 65.11885742 -104.07202148 64.07495117 C-94.45885126 45.07749574 -79.47022174 29.46532571 -61.55639648 18.14526367 C-60.75073242 17.60514648 -59.94506836 17.0650293 -59.11499023 16.50854492 C-41.5549491 5.18811231 -20.70005867 -0.00875267 0 0 Z " fill="#DDDDDD" transform="translate(207.556396484375,191.854736328125)"/>
<path d="M0 0 C1.0108667 0.00572021 2.0217334 0.01144043 3.06323242 0.01733398 C18.71996833 0.38907038 31.13732499 6.93013096 41.9296875 18.203125 C50.12163718 28.19662378 54.39901832 38.90485733 54.25 51.75 C54.24242676 52.66950439 54.23485352 53.58900879 54.22705078 54.53637695 C53.88031826 68.9460239 48.51856154 81.03200447 38.78515625 91.62109375 C27.57770834 102.29591047 13.63990093 106.94188173 -1.60791016 106.86352539 C-15.95495189 106.51408997 -27.35481393 100.37816267 -37.5625 90.5625 C-48.90023518 78.63276283 -52.62031428 64.73361967 -52.4609375 48.4453125 C-51.54976994 35.29846632 -45.20695473 22.36008508 -35.55078125 13.37890625 C-24.46629954 4.56628525 -14.11714704 -0.09297662 0 0 Z " fill="#4EB2EA" transform="translate(321.1875,230.5)"/>
<path d="M0 0 C1.0108667 0.00572021 2.0217334 0.01144043 3.06323242 0.01733398 C18.71996833 0.38907038 31.13732499 6.93013096 41.9296875 18.203125 C50.12163718 28.19662378 54.39901832 38.90485733 54.25 51.75 C54.24242676 52.66950439 54.23485352 53.58900879 54.22705078 54.53637695 C53.88031826 68.9460239 48.51856154 81.03200447 38.78515625 91.62109375 C27.57770834 102.29591047 13.63990093 106.94188173 -1.60791016 106.86352539 C-15.95495189 106.51408997 -27.35481393 100.37816267 -37.5625 90.5625 C-48.90023518 78.63276283 -52.62031428 64.73361967 -52.4609375 48.4453125 C-51.54976994 35.29846632 -45.20695473 22.36008508 -35.55078125 13.37890625 C-24.46629954 4.56628525 -14.11714704 -0.09297662 0 0 Z " fill="#4EB2EA" transform="translate(193.1875,230.5)"/>
<path d="M0 0 C1.10859375 0.00322266 2.2171875 0.00644531 3.359375 0.00976562 C4.50148437 0.01814453 5.64359375 0.02652344 6.8203125 0.03515625 C8.56828125 0.04192383 8.56828125 0.04192383 10.3515625 0.04882812 C13.21619895 0.06056844 16.08072883 0.07699055 18.9453125 0.09765625 C18.34501895 4.77851664 16.96885366 8.82347989 15.1953125 13.16015625 C12.63331844 19.69320217 10.74441145 26.27004141 9.1328125 33.09765625 C8.8229541 34.40488647 8.8229541 34.40488647 8.50683594 35.73852539 C6.00653228 46.69678904 5.59167585 57.46877809 5.5078125 68.66015625 C5.50064209 69.52361664 5.49347168 70.38707703 5.48608398 71.27670288 C5.38867161 94.10358275 8.20895477 116.68653386 11.03062439 139.30621338 C11.21075829 140.76109161 11.21075829 140.76109161 11.39453125 142.24536133 C11.50112061 143.08988358 11.60770996 143.93440582 11.7175293 144.80451965 C11.9453125 147.09765625 11.9453125 147.09765625 11.9453125 151.09765625 C-3.56854201 151.53172265 -16.78926806 151.65274532 -28.8046875 140.46875 C-36.35878081 132.32921446 -38.20104727 123.13529757 -38.21582031 112.33520508 C-38.22078522 111.46296295 -38.22575012 110.59072083 -38.23086548 109.69204712 C-38.24544222 106.81291914 -38.25228234 103.93384629 -38.2578125 101.0546875 C-38.26356852 99.04554748 -38.2693262 97.03640747 -38.27508545 95.02726746 C-38.28558329 90.81496933 -38.29143363 86.60269022 -38.29492188 82.39038086 C-38.3003979 77.01170571 -38.32441211 71.63328481 -38.35289383 66.25468922 C-38.37158581 62.10321842 -38.37672934 57.951808 -38.37825775 53.80029869 C-38.38127102 51.81850485 -38.38925438 49.83671173 -38.40244293 47.85495949 C-38.48746756 34.0944935 -38.43086847 22.08409439 -29.0546875 11.09765625 C-20.64528147 3.07757457 -11.59200215 -0.05975259 0 0 Z " fill="#4EB2EA" transform="translate(80.0546875,220.90234375)"/>
<path d="M0 0 C3.91651903 -0.08859875 7.83277374 -0.14091917 11.75 -0.1875 C13.38775391 -0.22520508 13.38775391 -0.22520508 15.05859375 -0.26367188 C27.61564239 -0.37512497 38.45503667 1.80949803 47.74609375 10.6640625 C53.21783286 16.64067529 57.09573049 23.79714618 57.14717102 32.01356506 C57.15432632 32.8025116 57.16148163 33.59145813 57.16885376 34.40431213 C57.17154266 35.2609697 57.17423157 36.11762726 57.17700195 37.00024414 C57.18685875 38.36450027 57.18685875 38.36450027 57.19691467 39.75631714 C57.21662107 42.76593107 57.22830655 45.77549507 57.23828125 48.78515625 C57.24235678 49.81585173 57.2464323 50.8465472 57.25063133 51.90847588 C57.27148424 57.36761143 57.28578738 62.82672192 57.29516602 68.28588867 C57.30620766 73.90557799 57.34058409 79.52486887 57.38033772 85.14441776 C57.4065751 89.48122355 57.41486435 93.8179356 57.41844749 98.15481377 C57.42329778 100.22510902 57.43486692 102.29540053 57.45348549 104.36561775 C57.57667898 118.97583187 57.30738795 130.68929399 46.63671875 141.765625 C37.51698962 149.49375102 28.15861978 151.18206703 16.625 151.0625 C15.79355469 151.05798828 14.96210938 151.05347656 14.10546875 151.04882812 C12.07028103 151.03713164 10.03513077 151.01919935 8 151 C7.37452534 139.3476387 9.09907652 127.980811 10.56594849 116.45016479 C15.29971136 78.82269089 17.51609529 40.4681774 0.8828125 5.109375 C0 3 0 3 0 0 Z " fill="#4EB2EA" transform="translate(417,221)"/>
<path d="M0 0 C5.94 0 11.88 0 18 0 C18.06785817 7.47588274 18.12286332 14.95159632 18.15543652 22.42772198 C18.17107243 25.8994411 18.19227212 29.37093803 18.22631836 32.8425293 C18.26524063 36.83644712 18.27972629 40.83013263 18.29296875 44.82421875 C18.30845261 46.06709152 18.32393646 47.30996429 18.33988953 48.59049988 C18.34011612 49.75132584 18.34034271 50.91215179 18.34057617 52.1081543 C18.34723801 53.12741501 18.35389984 54.14667572 18.36076355 55.19682312 C17.93942577 58.4706692 16.91858238 60.338595 15 63 C12.04959234 65.06528536 9.55351395 65.6066975 6 65 C3.24373569 63.37129836 2.40879126 62.75730967 1 60 C-1.10130726 47.70494196 -0.11329286 34.55104261 -0.0625 22.125 C-0.05747343 19.97265729 -0.05291258 17.82031345 -0.04882812 15.66796875 C-0.03791769 10.44528385 -0.02071723 5.22265482 0 0 Z " fill="#868686" transform="translate(136,123)"/>
<path d="M0 0 C5.94 0 11.88 0 18 0 C18.09047156 7.6062223 18.16381394 15.21224346 18.20724869 22.81887341 C18.22809843 26.35121382 18.25636679 29.88316613 18.30175781 33.4152832 C18.35364825 37.47871567 18.37296666 41.54174228 18.390625 45.60546875 C18.41127014 46.8702153 18.43191528 48.13496185 18.45318604 49.43803406 C18.45348816 50.61888077 18.45379028 51.79972748 18.45410156 53.01635742 C18.46298401 54.05338303 18.47186646 55.09040863 18.48101807 56.15885925 C17.86872721 59.7753648 16.57695235 61.42981549 14 64 C10.50540538 64.93605213 8.15394952 65.3742539 4.6875 64.25 C3 63 3 63 1 60 C0.68115234 57.48925781 0.68115234 57.48925781 0.5859375 54.453125 C0.54718506 53.31190186 0.50843262 52.17067871 0.46850586 50.99487305 C0.43764893 49.75906494 0.40679199 48.52325684 0.375 47.25 C0.33705322 45.9813208 0.29910645 44.7126416 0.26000977 43.40551758 C-0.12984459 28.93847316 -0.08829678 14.47086091 0 0 Z " fill="#868686" transform="translate(362,123)"/>
<path d="M0 0 C4.75809924 2.82290216 8.33241349 6.03201449 10.84375 11.0546875 C11.3676076 16.31043915 11.50880372 20.69994845 9.15625 25.4921875 C5.36203486 29.69658806 2.18632153 32.62809113 -3.57421875 33.36328125 C-9.86087202 33.65588994 -13.75809211 33.02807566 -18.5625 28.82421875 C-22.43937201 24.51975056 -23.7493905 19.70516457 -23.5078125 14.0390625 C-22.67073481 9.31422397 -20.15653974 5.97995551 -16.65625 2.7421875 C-15.41875 1.906875 -15.41875 1.906875 -14.15625 1.0546875 C-13.558125 0.6421875 -12.96 0.2296875 -12.34375 -0.1953125 C-8.0425463 -1.67001091 -4.14541426 -1.81737364 0 0 Z " fill="#868686" transform="translate(264.15625,405.9453125)"/>
<path d="M0 0 C4.85278467 2.6061251 8.2657337 5.68866283 10.375 10.8125 C11.12415483 16.70844582 10.84851482 21.83379543 7.375 26.8125 C3.01849139 31.19281467 -0.71176324 32.96369531 -6.875 33.1875 C-11.64476346 33.13079211 -14.5548345 32.47292448 -18.1875 29.35546875 C-21.86436043 25.40883867 -23.83086717 21.82772833 -24.1875 16.375 C-23.91624158 11.23859058 -22.0402027 7.60716967 -18.625 3.8125 C-12.64643802 -1.34057016 -7.63732317 -2.50188173 0 0 Z " fill="#878787" transform="translate(219.625,406.1875)"/>
<path d="M0 0 C4.84916362 2.64585432 8.0999607 6.04988209 9.875 11.375 C10.72289212 17.51616147 9.81163331 21.64300408 6.2421875 26.71484375 C3.72609725 29.7700962 1.60665708 31.13111431 -2.125 32.375 C-7.3924928 32.87942239 -11.75679168 33.0466659 -16.5625 30.6875 C-21.16207582 26.53666328 -23.67993132 23.38791432 -24.36328125 17.2265625 C-24.54696195 11.71614142 -23.85651603 8.69570277 -20.125 4.375 C-14.08358784 -1.44557725 -7.98846044 -3.63935532 0 0 Z " fill="#868686" transform="translate(310.125,406.625)"/>
</svg>
